#!OML:ASF F:\VICON\USERDATA\INSTALL\rory3\rory3.ASF
:FULLY-SPECIFIED
:DEGREES
5128
root -2.93707 17.855 15.7776 540.081 -4.39046 537.566
lowerback 12.8379 1.86036 2.96848
upperback 0.938758 2.82058 1.05578
thorax -6.1171 1.25299 -1.05674
lowerneck -20.9768 4.43249 -8.78487
upperneck 38.1705 6.44793 3.14129
head 16.9852 0.814613 3.93993
rclavicle 3.27995e-015 -7.15625e-015
rhumerus -36.1688 -15.6337 -67.383
rradius 32.857
rwrist 5.75005
rhand -15.6885 8.96882
rfingers 7.12502
rthumb 10.5007 -20.7489
lclavicle 3.27995e-015 -7.15625e-015
lhumerus -36.1033 14.2536 79.4555
lradius 35.0812
lwrist -4.77869
lhand -22.6792 20.3643
lfingers 7.12502
lthumb 3.75288 50.311
rfemur -2.2649 -2.37862 18.0478
rtibia 27.2005
rfoot -19.7936 -6.38445
rtoes -3.48463
lfemur -11.7291 -5.84932 -16.7071
ltibia 32.7126
lfoot -17.9905 3.76487
ltoes -10.9799
5129
root -2.98935 17.8702 15.7885 540.04 -4.1677 537.564
lowerback 12.9041 1.89241 2.95582
upperback 0.909856 2.86373 1.00659
thorax -6.18117 1.27326 -1.11212
lowerneck -20.8675 4.46926 -8.64461
upperneck 38.1763 6.42941 3.10837
head 16.97 0.818573 3.89249
rclavicle 3.29983e-014 -2.38542e-015
rhumerus -36.131 -16.1929 -67.1673
rradius 32.6236
rwrist 5.65223
rhand -15.8524 9.05875
rfingers 7.12502
rthumb 10.3425 -20.6669
lclavicle 3.29983e-014 -2.38542e-015
lhumerus -36.1426 14.5967 79.1185
lradius 34.8315
lwrist -5.11861
lhand -22.3976 20.428
lfingers 7.12502
lthumb 4.02479 50.3697
rfemur -2.14676 -2.11167 17.8664
rtibia 26.8857
rfoot -19.4988 -6.41521
rtoes -3.84343
lfemur -11.6528 -6.0083 -16.0454
ltibia 32.7709
lfoot -17.6178 4.20684
ltoes -8.6823
5130
root -3.04079 17.887 15.8005 540.014 -3.97756 537.465
lowerback 12.9656 1.91134 2.82056
upperback 0.90842 2.8694 0.953687
thorax -6.22071 1.27879 -1.09531
lowerneck -20.8934 4.48029 -8.6982
upperneck 38.2197 6.41984 3.2175
head 16.99 0.817615 3.95081
rclavicle 3.49861e-014 -4.05521e-014
rhumerus -36.0883 -16.4922 -67.0764
rradius 32.601
rwrist 5.40081
rhand -16.0052 8.62084
rfingers 7.12502
rthumb 10.1951 -21.1121
lclavicle 3.49861e-014 -4.05521e-014
lhumerus -36.1219 14.9167 78.8852
lradius 34.6037
lwrist -4.8252
lhand -22.2765 21.0534
lfingers 7.12502
lthumb 4.1418 50.9928
rfemur -2.03128 -1.70628 17.5973
rtibia 26.5869
rfoot -19.2425 -6.44718
rtoes -3.18158
lfemur -11.6136 -6.13394 -15.4924
ltibia 32.7907
lfoot -17.1203 4.59115
ltoes -7.7099
5131
root -3.09142 17.9039 15.8111 539.937 -3.7853 537.373
lowerback 12.9845 1.93761 2.6882
upperback 0.984531 2.87605 0.887539
thorax -6.15319 1.28523 -1.09073
lowerneck -21.0061 4.45218 -8.78085
upperneck 38.2645 6.37428 3.34346
head 17.0341 0.802068 4.01968
rclavicle -1.80894e-014 5.56597e-015
rhumerus -36.0288 -16.6534 -67.143
rradius 32.7899
rwrist 4.91277
rhand -16.0353 8.11995
rfingers 7.12502
rthumb 10.1661 -21.6144
lclavicle -1.80894e-014 5.56597e-015
lhumerus -36.008 15.1267 78.6369
lradius 34.3991
lwrist -4.27236
lhand -22.2199 20.9178
lfingers 7.12502
lthumb 4.19641 50.8562
rfemur -1.82947 -1.35778 17.3396
rtibia 26.2744
rfoot -18.9887 -6.49955
rtoes -2.69098
lfemur -11.5335 -6.17992 -14.9281
ltibia 32.7847
lfoot -16.6444 4.88376
ltoes -7.75508
5132
root -3.14564 17.9163 15.8202 539.823 -3.5824 537.262
lowerback 13.0016 1.96503 2.53689
upperback 1.0833 2.87877 0.811998
thorax -6.06122 1.28994 -1.08399
lowerneck -21.0724 4.45053 -8.69763
upperneck 38.2377 6.37276 3.29362
head 17.0436 0.809886 3.98524
rclavicle -3.57812e-015 -1.35174e-014
rhumerus -35.9117 -16.9292 -67.2143
rradius 32.9126
rwrist 4.67921
rhand -15.983 8.05783
rfingers 7.12502
rthumb 10.2166 -21.6741
lclavicle -3.57812e-015 -1.35174e-014
lhumerus -35.9201 15.5036 78.2939
lradius 34.2343
lwrist -4.09844
lhand -21.9401 20.3377
lfingers 7.12502
lthumb 4.46661 50.2706
rfemur -1.58709 -1.13625 17.0491
rtibia 25.9472
rfoot -18.6867 -6.66198
rtoes -3.67459
lfemur -11.3545 -6.29775 -14.3815
ltibia 32.7307
lfoot -16.2154 4.9202
ltoes -6.32192
5133
root -3.20067 17.9279 15.8227 539.717 -3.53585 537.144
lowerback 13.0203 1.93104 2.38997
upperback 1.14909 2.80334 0.730806
thorax -6.0073 1.25602 -1.07274
lowerneck -21.178 4.46137 -8.64401
upperneck 38.272 6.38095 3.29454
head 17.0899 0.817507 3.98397
rclavicle 7.25564e-015 -1.82882e-014
rhumerus -35.8184 -17.0241 -67.3633
rradius 32.9865
rwrist 4.42641
rhand -16.0571 8.37627
rfingers 7.12502
rthumb 10.1451 -21.3591
lclavicle 7.25564e-015 -1.82882e-014
lhumerus -35.9429 15.7498 77.9635
lradius 34.2218
lwrist -4.0071
lhand -21.4438 20.915
lfingers 7.12502
lthumb 4.94586 50.8373
rfemur -1.29493 -1.02925 16.7461
rtibia 25.6048
rfoot -18.4655 -6.8308
rtoes -4.50099
lfemur -11.1803 -6.45431 -13.8319
ltibia 32.6514
lfoot -15.7178 4.75053
ltoes -5.20814
5134
root -3.25058 17.9418 15.8238 539.599 -3.70887 537.021
lowerback 13.0563 1.85101 2.18775
upperback 1.20459 2.66247 0.698202
thorax -5.98089 1.19119 -0.968641
lowerneck -21.2608 4.43607 -8.7893
upperneck 38.3146 6.35862 3.42299
head 17.1206 0.801638 4.06722
rclavicle -1.16289e-014 -1.82882e-014
rhumerus -35.7821 -16.9878 -67.4788
rradius 33.0868
rwrist 4.12029
rhand -16.161 8.47215
rfingers 7.12502
rthumb 10.0449 -21.2681
lclavicle -1.16289e-014 -1.82882e-014
lhumerus -35.9196 15.5945 77.9126
lradius 34.1634
lwrist -3.25322
lhand -21.6119 21.2578
lfingers 7.12502
lthumb 4.78353 51.1838
rfemur -0.898769 -0.74522 16.5169
rtibia 25.2512
rfoot -18.3667 -7.19073
rtoes -3.69464
lfemur -11.0539 -6.63598 -13.2536
ltibia 32.552
lfoot -15.2076 4.3729
ltoes -5.45026
5135
root -3.30506 17.9544 15.83 539.501 -3.69673 536.926
lowerback 13.1179 1.82948 2.02939
upperback 1.23599 2.6075 0.661797
thorax -5.98892 1.16694 -0.909667
lowerneck -21.21 4.40945 -8.86553
upperneck 38.2616 6.32737 3.45656
head 17.0768 0.787131 4.08474
rclavicle -3.24019e-014 2.06736e-014
rhumerus -35.7909 -16.7219 -67.6503
rradius 33.2759
rwrist 3.80684
rhand -16.1465 8.47192
rfingers 7.12502
rthumb 10.0588 -21.2677
lclavicle -3.24019e-014 2.06736e-014
lhumerus -35.927 15.3104 77.9226
lradius 34.1654
lwrist -2.36074
lhand -22.3214 20.5072
lfingers 7.12502
lthumb 4.09845 50.4475
rfemur -0.591999 -0.404711 16.2751
rtibia 24.8976
rfoot -18.1876 -7.39143
rtoes -3.26467
lfemur -10.9214 -6.81373 -12.6594
ltibia 32.4217
lfoot -14.6978 4.01632
ltoes -5.16055
5136
root -3.36624 17.9612 15.8368 539.392 -3.54961 536.788
lowerback 13.2541 1.82152 1.88749
upperback 1.22976 2.57373 0.568262
thorax -6.07411 1.15156 -0.927161
lowerneck -21.1493 4.42343 -8.80973
upperneck 38.2468 6.32603 3.4072
head 17.0592 0.784935 4.04842
rclavicle 8.54774e-015 8.74653e-015
rhumerus -35.8131 -16.3207 -67.9346
rradius 33.4485
rwrist 3.56003
rhand -16.2223 8.6224
rfingers 7.12502
rthumb 9.98569 -21.1207
lclavicle 8.54774e-015 8.74653e-015
lhumerus -36.0379 15.3161 77.6177
lradius 34.2073
lwrist -2.40479
lhand -22.3511 20.3573
lfingers 7.12502
lthumb 4.06978 50.2982
rfemur -0.348021 -0.151397 15.9228
rtibia 24.6047
rfoot -17.9559 -7.45971
rtoes -3.75904
lfemur -10.7048 -6.96123 -12.1405
ltibia 32.2523
lfoot -14.2507 3.71805
ltoes -3.75436
5137
root -3.42922 17.9665 15.8407 539.289 -3.46392 536.674
lowerback 13.3264 1.79038 1.78346
upperback 1.23504 2.51387 0.503066
thorax -6.11182 1.12336 -0.928858
lowerneck -21.0349 4.476 -8.73181
upperneck 38.1947 6.40485 3.27085
head 17.0077 0.808805 3.98011
rclavicle -3.60794e-014 -3.97569e-015
rhumerus -35.885 -15.8758 -68.2149
rradius 33.7945
rwrist 3.31257
rhand -16.1669 8.6792
rfingers 7.12502
rthumb 10.0392 -21.0613
lclavicle -3.60794e-014 -3.97569e-015
lhumerus -36.1465 15.4292 77.2924
lradius 34.2391
lwrist -2.64009
lhand -22.112 20.7312
lfingers 7.12502
lthumb 4.30058 50.6675
rfemur -0.119574 0.0439101 15.5877
rtibia 24.3826
rfoot -17.7947 -7.54695
rtoes -4.14686
lfemur -10.4782 -7.12219 -11.5987
ltibia 32.0626
lfoot -13.7827 3.46387
ltoes -4.00401
